<svg width="213" height="45" viewBox="0 0 213 45" fill="none" xmlns="http://www.w3.org/2000/svg">
<path d="M56.7102 8.8C56.9742 8.8 57.2022 8.896 57.3942 9.088C57.5862 9.28 57.6822 9.508 57.6822 9.772V15.244C57.6822 15.508 57.5862 15.736 57.3942 15.928C57.2022 16.12 56.9742 16.216 56.7102 16.216H42.5622V18.52H54.3702C54.6342 18.52 54.8622 18.616 55.0542 18.808C55.2462 19 55.3422 19.228 55.3422 19.492V24.928C55.3422 25.192 55.2462 25.42 55.0542 25.612C54.8622 25.804 54.6342 25.9 54.3702 25.9H42.5622V33.028C42.5622 33.292 42.4662 33.52 42.2742 33.712C42.0822 33.904 41.8542 34 41.5902 34H33.8142C33.5502 34 33.3222 33.904 33.1302 33.712C32.9382 33.52 32.8422 33.292 32.8422 33.028V9.772C32.8422 9.508 32.9382 9.28 33.1302 9.088C33.3222 8.896 33.5502 8.8 33.8142 8.8H56.7102ZM80.0241 26.62H86.5401C86.8041 26.62 87.0321 26.716 87.2241 26.908C87.4161 27.1 87.5121 27.328 87.5121 27.592V33.028C87.5121 33.292 87.4161 33.52 87.2241 33.712C87.0321 33.904 86.8041 34 86.5401 34H63.7161C63.4521 34 63.2241 33.904 63.0321 33.712C62.8401 33.52 62.7441 33.292 62.7441 33.028V27.592C62.7441 27.328 62.8401 27.1 63.0321 26.908C63.2241 26.716 63.4521 26.62 63.7161 26.62H70.3041V16.18H63.7161C63.4521 16.18 63.2241 16.084 63.0321 15.892C62.8401 15.7 62.7441 15.472 62.7441 15.208V9.772C62.7441 9.508 62.8401 9.28 63.0321 9.088C63.2241 8.896 63.4521 8.8 63.7161 8.8H86.5401C86.8041 8.8 87.0321 8.896 87.2241 9.088C87.4161 9.28 87.5121 9.508 87.5121 9.772V15.208C87.5121 15.472 87.4161 15.7 87.2241 15.892C87.0321 16.084 86.8041 16.18 86.5401 16.18H80.0241V26.62ZM117.45 26.62C117.714 26.62 117.942 26.716 118.134 26.908C118.326 27.1 118.422 27.328 118.422 27.592V33.028C118.422 33.292 118.326 33.52 118.134 33.712C117.942 33.904 117.714 34 117.45 34H96.4261C96.1621 34 95.9341 33.904 95.7421 33.712C95.5501 33.52 95.4541 33.292 95.4541 33.028V9.772C95.4541 9.508 95.5501 9.28 95.7421 9.088C95.9341 8.896 96.1621 8.8 96.4261 8.8H104.202C104.466 8.8 104.694 8.896 104.886 9.088C105.078 9.28 105.174 9.508 105.174 9.772V26.62H117.45ZM141.016 9.772C141.376 9.124 141.892 8.8 142.564 8.8H149.152C149.416 8.8 149.644 8.896 149.836 9.088C150.028 9.28 150.124 9.508 150.124 9.772V33.028C150.124 33.292 150.028 33.52 149.836 33.712C149.644 33.904 149.416 34 149.152 34H142.636C142.372 34 142.144 33.904 141.952 33.712C141.76 33.52 141.664 33.292 141.664 33.028V21.868L139.036 27.052C138.964 27.22 138.796 27.412 138.532 27.628C138.268 27.844 137.932 27.952 137.524 27.952H135.076C134.668 27.952 134.332 27.844 134.068 27.628C133.804 27.412 133.636 27.22 133.564 27.052L130.936 21.868V33.028C130.936 33.292 130.84 33.52 130.648 33.712C130.456 33.904 130.228 34 129.964 34H123.448C123.184 34 122.956 33.904 122.764 33.712C122.572 33.52 122.476 33.292 122.476 33.028V9.772C122.476 9.508 122.572 9.28 122.764 9.088C122.956 8.896 123.184 8.8 123.448 8.8H130.036C130.708 8.8 131.224 9.124 131.584 9.772L136.3 18.412L141.016 9.772ZM161.702 32.776C161.39 33.592 160.85 34 160.082 34H153.278C153.062 34 152.87 33.928 152.702 33.784C152.558 33.616 152.486 33.424 152.486 33.208L152.522 32.992L160.37 9.988C160.466 9.676 160.646 9.4 160.91 9.16C161.174 8.92 161.534 8.8 161.99 8.8H171.998C172.454 8.8 172.814 8.92 173.078 9.16C173.342 9.4 173.522 9.676 173.618 9.988L181.466 32.992L181.502 33.208C181.502 33.424 181.418 33.616 181.25 33.784C181.106 33.928 180.926 34 180.71 34H173.906C173.138 34 172.598 33.592 172.286 32.776L171.386 30.256H162.602L161.702 32.776ZM166.994 15.748L164.438 23.236H169.55L166.994 15.748ZM210.828 32.812C210.9 32.884 210.936 32.98 210.936 33.1C210.936 33.34 210.852 33.556 210.684 33.748C210.54 33.916 210.36 34 210.144 34H202.404C201.756 34 201.264 33.724 200.928 33.172L197.436 27.808L194.016 33.172C193.656 33.724 193.164 34 192.54 34H184.764C184.548 34 184.356 33.928 184.188 33.784C184.044 33.616 183.972 33.424 183.972 33.208V33.1C183.972 32.98 184.008 32.884 184.08 32.812L192.036 20.644L184.944 9.988C184.872 9.892 184.836 9.76 184.836 9.592C184.836 9.376 184.908 9.196 185.052 9.052C185.22 8.884 185.412 8.8 185.628 8.8H193.404C194.028 8.8 194.532 9.1 194.916 9.7L197.724 14.308L200.748 9.628C200.916 9.412 201.096 9.22 201.288 9.052C201.504 8.884 201.816 8.8 202.224 8.8H209.964C210.18 8.8 210.36 8.884 210.504 9.052C210.672 9.196 210.756 9.376 210.756 9.592V9.7C210.756 9.82 210.72 9.916 210.648 9.988L203.124 21.112L210.828 32.812Z" fill="black"/>
<path d="M2 29.3332V19.1249C2 17.9974 2.97262 17.0833 4.17241 17.0833H4.71551C5.39929 17.0833 6.04317 16.7807 6.45344 16.2666L8.86481 13.245C8.98789 13.0908 9.18106 13 9.38619 13H16.3379C16.5431 13 16.7362 13.0908 16.8593 13.245L19.2706 16.2666C19.6809 16.7807 20.3248 17.0833 21.0086 17.0833H21.5517C22.7515 17.0833 23.7241 17.9974 23.7241 19.1249V29.3332C23.7241 30.4608 22.7515 31.3748 21.5517 31.3748H4.17241C2.97262 31.3748 2 30.4608 2 29.3332Z" stroke="black" stroke-width="3" stroke-linecap="round" stroke-linejoin="round"/>
<path d="M12.862 27.2915C15.2615 27.2915 17.2068 25.4633 17.2068 23.2082C17.2068 20.9531 15.2615 19.1249 12.862 19.1249C10.4624 19.1249 8.51715 20.9531 8.51715 23.2082C8.51715 25.4633 10.4624 27.2915 12.862 27.2915Z" stroke="black" stroke-width="3" stroke-linecap="round" stroke-linejoin="round"/>
</svg>
